{
    "asset" : {
        "generator" : "Khronos glTF Blender I/O v1.5.17",
        "version" : "2.0"
    },
    "scene" : 0,
    "scenes" : [
        {
            "name" : "Scene",
            "nodes" : [
                0
            ]
        }
    ],
    "nodes" : [
        {
            "mesh" : 0,
            "name" : "Box008",
            "rotation" : [
                0.7068179249763489,
                0,
                0,
                0.7073954939842224
            ],
            "scale" : [
                0.009999999776482582,
                0.009999999776482582,
                0.009999999776482582
            ],
            "translation" : [
                0.005596756935119629,
                0.5687243938446045,
                0
            ]
        }
    ],
    "materials" : [
        {
            "doubleSided" : true,
            "name" : "METAL 1",
            "pbrMetallicRoughness" : {
                "baseColorFactor" : [
                    0.007997811771929264,
                    0.007997811771929264,
                    0.007997811771929264,
                    1
                ],
                "metallicFactor" : 0.5,
                "roughnessFactor" : 0.30000001192092896
            }
        },
        {
            "doubleSided" : true,
            "name" : "METAL 2",
            "pbrMetallicRoughness" : {
                "baseColorFactor" : [
                    0.015994979068636894,
                    0.015994979068636894,
                    0.015994979068636894,
                    1
                ],
                "metallicFactor" : 0.4000000059604645,
                "roughnessFactor" : 0.20000000298023224
            }
        },
        {
            "doubleSided" : true,
            "name" : "METAL 3",
            "pbrMetallicRoughness" : {
                "baseColorFactor" : [
                    0.31081318855285645,
                    0.31081318855285645,
                    0.31081318855285645,
                    1
                ],
                "metallicFactor" : 0.699999988079071,
                "roughnessFactor" : 0.25
            }
        },
        {
            "doubleSided" : true,
            "name" : "SCREEN",
            "pbrMetallicRoughness" : {
                "metallicFactor" : 0.30000001192092896,
                "roughnessFactor" : 0.05000000074505806
            }
        }
    ],
    "meshes" : [
        {
            "name" : "Mesh.014",
            "primitives" : [
                {
                    "attributes" : {
                        "POSITION" : 0,
                        "NORMAL" : 1,
                        "TEXCOORD_0" : 2
                    },
                    "indices" : 3,
                    "material" : 0
                },
                {
                    "attributes" : {
                        "POSITION" : 4,
                        "NORMAL" : 5,
                        "TEXCOORD_0" : 6
                    },
                    "indices" : 7,
                    "material" : 1
                },
                {
                    "attributes" : {
                        "POSITION" : 8,
                        "NORMAL" : 9,
                        "TEXCOORD_0" : 10
                    },
                    "indices" : 11,
                    "material" : 2
                },
                {
                    "attributes" : {
                        "POSITION" : 12,
                        "NORMAL" : 13,
                        "TEXCOORD_0" : 14
                    },
                    "indices" : 15,
                    "material" : 3
                }
            ]
        }
    ],
    "accessors" : [
        {
            "bufferView" : 0,
            "componentType" : 5126,
            "count" : 38085,
            "max" : [
                86.23139953613281,
                17.2019100189209,
                51.50783920288086
            ],
            "min" : [
                -85.23509216308594,
                -5.452889442443848,
                -46.1427001953125
            ],
            "type" : "VEC3"
        },
        {
            "bufferView" : 1,
            "componentType" : 5126,
            "count" : 38085,
            "type" : "VEC3"
        },
        {
            "bufferView" : 2,
            "componentType" : 5126,
            "count" : 38085,
            "type" : "VEC2"
        },
        {
            "bufferView" : 3,
            "componentType" : 5123,
            "count" : 217728,
            "type" : "SCALAR"
        },
        {
            "bufferView" : 4,
            "componentType" : 5126,
            "count" : 25570,
            "max" : [
                87.5498046875,
                26.1842041015625,
                56.81725311279297
            ],
            "min" : [
                -86.51478576660156,
                -8.549633026123047,
                -51.997764587402344
            ],
            "type" : "VEC3"
        },
        {
            "bufferView" : 5,
            "componentType" : 5126,
            "count" : 25570,
            "type" : "VEC3"
        },
        {
            "bufferView" : 6,
            "componentType" : 5126,
            "count" : 25570,
            "type" : "VEC2"
        },
        {
            "bufferView" : 7,
            "componentType" : 5123,
            "count" : 150816,
            "type" : "SCALAR"
        },
        {
            "bufferView" : 8,
            "componentType" : 5126,
            "count" : 8550,
            "max" : [
                88.13119506835938,
                8.725507736206055,
                56.86624526977539
            ],
            "min" : [
                -87.10452270507812,
                -14.845663070678711,
                -49.84245300292969
            ],
            "type" : "VEC3"
        },
        {
            "bufferView" : 9,
            "componentType" : 5126,
            "count" : 8550,
            "type" : "VEC3"
        },
        {
            "bufferView" : 10,
            "componentType" : 5126,
            "count" : 8550,
            "type" : "VEC2"
        },
        {
            "bufferView" : 11,
            "componentType" : 5123,
            "count" : 39798,
            "type" : "SCALAR"
        },
        {
            "bufferView" : 12,
            "componentType" : 5126,
            "count" : 78,
            "max" : [
                86.22950744628906,
                4.08270788192749,
                50.06315612792969
            ],
            "min" : [
                -85.06031799316406,
                -7.835213661193848,
                -47.369178771972656
            ],
            "type" : "VEC3"
        },
        {
            "bufferView" : 13,
            "componentType" : 5126,
            "count" : 78,
            "type" : "VEC3"
        },
        {
            "bufferView" : 14,
            "componentType" : 5126,
            "count" : 78,
            "type" : "VEC2"
        },
        {
            "bufferView" : 15,
            "componentType" : 5123,
            "count" : 228,
            "type" : "SCALAR"
        }
    ],
    "bufferViews" : [
        {
            "buffer" : 0,
            "byteLength" : 457020,
            "byteOffset" : 0
        },
        {
            "buffer" : 0,
            "byteLength" : 457020,
            "byteOffset" : 457020
        },
        {
            "buffer" : 0,
            "byteLength" : 304680,
            "byteOffset" : 914040
        },
        {
            "buffer" : 0,
            "byteLength" : 435456,
            "byteOffset" : 1218720
        },
        {
            "buffer" : 0,
            "byteLength" : 306840,
            "byteOffset" : 1654176
        },
        {
            "buffer" : 0,
            "byteLength" : 306840,
            "byteOffset" : 1961016
        },
        {
            "buffer" : 0,
            "byteLength" : 204560,
            "byteOffset" : 2267856
        },
        {
            "buffer" : 0,
            "byteLength" : 301632,
            "byteOffset" : 2472416
        },
        {
            "buffer" : 0,
            "byteLength" : 102600,
            "byteOffset" : 2774048
        },
        {
            "buffer" : 0,
            "byteLength" : 102600,
            "byteOffset" : 2876648
        },
        {
            "buffer" : 0,
            "byteLength" : 68400,
            "byteOffset" : 2979248
        },
        {
            "buffer" : 0,
            "byteLength" : 79596,
            "byteOffset" : 3047648
        },
        {
            "buffer" : 0,
            "byteLength" : 936,
            "byteOffset" : 3127244
        },
        {
            "buffer" : 0,
            "byteLength" : 936,
            "byteOffset" : 3128180
        },
        {
            "buffer" : 0,
            "byteLength" : 624,
            "byteOffset" : 3129116
        },
        {
            "buffer" : 0,
            "byteLength" : 456,
            "byteOffset" : 3129740
        }
    ],
    "buffers" : [
        {
            "byteLength" : 3130196,
            "uri" : "data:application/octet-stream;base64,"
        }
    ]
}
